<svg width="26" height="26" viewBox="0 0 26 26" fill="none" xmlns="http://www.w3.org/2000/svg">
<path fill-rule="evenodd" clip-rule="evenodd" d="M0.875 9.25165C1.15114 8.77335 1.76273 8.60948 2.24103 8.88562L13.4994 15.3856C13.9776 15.6618 14.1415 16.2734 13.8654 16.7516C13.5892 17.2299 12.9776 17.3938 12.4994 17.1177L1.24103 10.6177C0.762733 10.3415 0.598858 9.72994 0.875 9.25165Z" fill="#8A9598"/>
<path fill-rule="evenodd" clip-rule="evenodd" d="M25.1271 9.25183C25.4032 9.73014 25.2393 10.3417 24.761 10.6178L13.501 17.1178C13.0227 17.3939 12.4111 17.23 12.135 16.7517C11.8589 16.2734 12.0228 15.6618 12.5011 15.3857L23.7611 8.88572C24.2394 8.6096 24.851 8.77352 25.1271 9.25183Z" fill="#8A9598"/>
</svg>
